<mxfile host="app.diagrams.net" modified="2023-11-23T07:01:32.639Z" agent="Mozilla/5.0 (Windows NT 10.0; Win64; x64) AppleWebKit/537.36 (KHTML, like Gecko) Chrome/119.0.0.0 Safari/537.36 Edg/119.0.0.0" etag="QGB-B_pxo6fzybdG6ImB" version="22.1.3" type="github">
  <diagram name="第 1 页" id="Y5i036zmAhH8ZnouyoA8">
    <mxGraphModel dx="1426" dy="905" grid="1" gridSize="10" guides="1" tooltips="1" connect="1" arrows="1" fold="1" page="1" pageScale="1" pageWidth="827" pageHeight="1169" math="0" shadow="0">
      <root>
        <mxCell id="0" />
        <mxCell id="1" parent="0" />
        <mxCell id="0skq0RBHYWnA5yaQYCl8-8" value="atom event" style="ellipse;whiteSpace=wrap;html=1;aspect=fixed;" vertex="1" parent="1">
          <mxGeometry x="80" y="340" width="80" height="80" as="geometry" />
        </mxCell>
        <mxCell id="0skq0RBHYWnA5yaQYCl8-11" value="actor" style="ellipse;whiteSpace=wrap;html=1;" vertex="1" parent="1">
          <mxGeometry x="140" y="270" width="90" height="40" as="geometry" />
        </mxCell>
        <mxCell id="0skq0RBHYWnA5yaQYCl8-12" value="action" style="ellipse;whiteSpace=wrap;html=1;" vertex="1" parent="1">
          <mxGeometry x="200" y="340" width="90" height="40" as="geometry" />
        </mxCell>
        <mxCell id="0skq0RBHYWnA5yaQYCl8-13" value="space" style="ellipse;whiteSpace=wrap;html=1;" vertex="1" parent="1">
          <mxGeometry x="200" y="420" width="90" height="40" as="geometry" />
        </mxCell>
        <mxCell id="0skq0RBHYWnA5yaQYCl8-14" value="time" style="ellipse;whiteSpace=wrap;html=1;" vertex="1" parent="1">
          <mxGeometry x="130" y="470" width="90" height="40" as="geometry" />
        </mxCell>
        <mxCell id="0skq0RBHYWnA5yaQYCl8-18" value="Data" style="ellipse;whiteSpace=wrap;html=1;" vertex="1" parent="1">
          <mxGeometry x="350" y="270" width="90" height="40" as="geometry" />
        </mxCell>
        <mxCell id="0skq0RBHYWnA5yaQYCl8-19" value="&lt;div&gt;time varying function&lt;/div&gt;" style="ellipse;whiteSpace=wrap;html=1;" vertex="1" parent="1">
          <mxGeometry x="400" y="340" width="90" height="40" as="geometry" />
        </mxCell>
        <mxCell id="0skq0RBHYWnA5yaQYCl8-20" value="space&amp;nbsp;" style="ellipse;whiteSpace=wrap;html=1;" vertex="1" parent="1">
          <mxGeometry x="400" y="410" width="90" height="40" as="geometry" />
        </mxCell>
        <mxCell id="0skq0RBHYWnA5yaQYCl8-21" value="time&amp;nbsp;intervals" style="ellipse;whiteSpace=wrap;html=1;" vertex="1" parent="1">
          <mxGeometry x="330" y="470" width="90" height="40" as="geometry" />
        </mxCell>
        <mxCell id="0skq0RBHYWnA5yaQYCl8-23" value="" style="endArrow=classic;html=1;rounded=0;entryX=0;entryY=1;entryDx=0;entryDy=0;exitX=0.5;exitY=0;exitDx=0;exitDy=0;" edge="1" parent="1" source="0skq0RBHYWnA5yaQYCl8-14" target="0skq0RBHYWnA5yaQYCl8-12">
          <mxGeometry width="50" height="50" relative="1" as="geometry">
            <mxPoint x="390" y="490" as="sourcePoint" />
            <mxPoint x="440" y="440" as="targetPoint" />
          </mxGeometry>
        </mxCell>
        <mxCell id="0skq0RBHYWnA5yaQYCl8-24" value="" style="endArrow=classic;html=1;rounded=0;entryX=0.5;entryY=1;entryDx=0;entryDy=0;exitX=0.5;exitY=0;exitDx=0;exitDy=0;" edge="1" parent="1" source="0skq0RBHYWnA5yaQYCl8-13" target="0skq0RBHYWnA5yaQYCl8-12">
          <mxGeometry width="50" height="50" relative="1" as="geometry">
            <mxPoint x="223" y="384" as="sourcePoint" />
            <mxPoint x="185" y="480" as="targetPoint" />
          </mxGeometry>
        </mxCell>
        <mxCell id="0skq0RBHYWnA5yaQYCl8-25" value="" style="endArrow=classic;html=1;rounded=0;exitX=0.5;exitY=1;exitDx=0;exitDy=0;entryX=0.5;entryY=0;entryDx=0;entryDy=0;" edge="1" parent="1" source="0skq0RBHYWnA5yaQYCl8-11" target="0skq0RBHYWnA5yaQYCl8-12">
          <mxGeometry width="50" height="50" relative="1" as="geometry">
            <mxPoint x="223" y="384" as="sourcePoint" />
            <mxPoint x="290" y="300" as="targetPoint" />
          </mxGeometry>
        </mxCell>
        <mxCell id="0skq0RBHYWnA5yaQYCl8-27" value="" style="endArrow=classic;html=1;rounded=0;exitX=0;exitY=0.5;exitDx=0;exitDy=0;entryX=1;entryY=0.5;entryDx=0;entryDy=0;" edge="1" parent="1" source="0skq0RBHYWnA5yaQYCl8-12" target="0skq0RBHYWnA5yaQYCl8-8">
          <mxGeometry width="50" height="50" relative="1" as="geometry">
            <mxPoint x="255" y="350" as="sourcePoint" />
            <mxPoint x="216" y="318" as="targetPoint" />
          </mxGeometry>
        </mxCell>
        <mxCell id="0skq0RBHYWnA5yaQYCl8-29" value="" style="endArrow=none;dashed=1;html=1;dashPattern=1 3;strokeWidth=2;rounded=0;exitX=1;exitY=0.5;exitDx=0;exitDy=0;" edge="1" parent="1" source="0skq0RBHYWnA5yaQYCl8-12" target="0skq0RBHYWnA5yaQYCl8-19">
          <mxGeometry width="50" height="50" relative="1" as="geometry">
            <mxPoint x="390" y="490" as="sourcePoint" />
            <mxPoint x="440" y="440" as="targetPoint" />
          </mxGeometry>
        </mxCell>
        <mxCell id="0skq0RBHYWnA5yaQYCl8-30" value="location" style="ellipse;whiteSpace=wrap;html=1;" vertex="1" parent="1">
          <mxGeometry x="170" y="170" width="90" height="40" as="geometry" />
        </mxCell>
        <mxCell id="0skq0RBHYWnA5yaQYCl8-33" value="" style="endArrow=classic;html=1;rounded=0;exitX=0.5;exitY=1;exitDx=0;exitDy=0;entryX=0.5;entryY=0;entryDx=0;entryDy=0;" edge="1" parent="1" source="0skq0RBHYWnA5yaQYCl8-30" target="0skq0RBHYWnA5yaQYCl8-11">
          <mxGeometry width="50" height="50" relative="1" as="geometry">
            <mxPoint x="390" y="500" as="sourcePoint" />
            <mxPoint x="440" y="450" as="targetPoint" />
          </mxGeometry>
        </mxCell>
      </root>
    </mxGraphModel>
  </diagram>
</mxfile>
